<svg xmlns="http://www.w3.org/2000/svg" viewBox="0 0 1140 648.43"><defs><style>.cls-1{fill:none;}.cls-2{fill:#00acd4;}.cls-3{fill:#fff;}.cls-4{fill:#05abd2;}.cls-5{fill:#f47929;}</style></defs><title>tv</title><g id="Layer_2" data-name="Layer 2"><g id="HEADER"><path class="cls-1" d="M185.15,205.62c0-7.48,5.79-13.56,12.92-13.56h751.2c7.12,0,12.92,6.08,12.92,13.56v420.8h58.66V163.74c0-16.79-13.13-30.45-29.28-30.45H155.76c-16.14,0-29.28,13.66-29.28,30.45V626.43h58.66Z"/><path class="cls-1" d="M653.14,45.2a14.43,14.43,0,1,0-14.43-14.43A14.44,14.44,0,0,0,653.14,45.2Z"/><path class="cls-1" d="M498.81,29.81a14.43,14.43,0,1,0-14.43,14.43A14.44,14.44,0,0,0,498.81,29.81Z"/><rect class="cls-1" x="206.31" y="214.27" width="734.72" height="411.95"/><path class="cls-2" d="M1042,626.43V163.74c0-28.93-22.62-52.46-50.43-52.46H597.22L642.4,58.58a29.85,29.85,0,1,0-15.74-14.14l-57.3,66.85h-5.48L509.55,45.77a29.82,29.82,0,1,0-17,12.7l43.8,52.82H155.76c-27.81,0-50.43,23.53-50.43,52.46V626.43H0v22H1140v-22ZM653.14,16.35a14.43,14.43,0,1,1-14.43,14.43A14.44,14.44,0,0,1,653.14,16.35ZM470,29.81a14.43,14.43,0,1,1,14.43,14.43A14.44,14.44,0,0,1,470,29.81ZM126.49,163.74c0-16.79,13.13-30.45,29.28-30.45h835.8c16.14,0,29.28,13.66,29.28,30.45V626.43H962.18V205.62c0-7.48-5.79-13.56-12.92-13.56H198.07c-7.12,0-12.92,6.08-12.92,13.56v420.8H126.49Zm79.82,462.48v-412H941v412Z"/><rect class="cls-3" x="206" y="214.43" width="735" height="412"/><rect class="cls-1" x="399.22" y="363.55" width="364.46" height="113.77"/><path class="cls-4" d="M424.83,384.09a5.12,5.12,0,0,0-5.07-5.07,5,5,0,0,0-5,5.07,5,5,0,0,0,5,5,20.63,20.63,0,1,1-20.54,20.54h15.56a5,5,0,0,0,5,5.07,5,5,0,0,0,5.07-5,5.12,5.12,0,0,0-5.07-5.07,20.5,20.5,0,1,1,20.54-20.54Z"/><rect class="cls-1" x="399.22" y="363.55" width="364.46" height="113.77"/><polygon class="cls-4" points="482.55 388.36 509.68 363.63 517.59 363.63 517.59 430.33 499.99 430.33 499.99 396.1 482.55 412.01 465.04 396.19 465.04 430.33 447.43 430.33 447.43 363.63 455.34 363.63 482.55 388.36"/><rect class="cls-1" x="399.22" y="363.55" width="364.46" height="113.77"/><path class="cls-4" d="M521.24,430.33l31.13-66.7h7.91l31.39,66.7H574.16l-4.09-8.71h-27.3l-4,8.71Zm28.37-23.48h13.61l-6.76-14.67Z"/><rect class="cls-1" x="399.22" y="363.55" width="364.46" height="113.77"/><path class="cls-4" d="M595.51,412.85l22.89-49h5.82l23.08,49H634.43l-3-6.41H611.34l-2.94,6.41Zm20.86-17.26h10l-5-10.79Z"/><rect class="cls-1" x="399.22" y="363.55" width="364.46" height="113.77"/><path class="cls-4" d="M690.4,430.33l-10.31-17.7H669.24v17.7H651.72v-66.7h28.1a24.48,24.48,0,0,1,16.63,42.51l14.14,24.19H690.4Zm-21.17-32.82h10.85a9.56,9.56,0,1,0,0-19.12H669.24Z"/><rect class="cls-1" x="399.22" y="363.55" width="364.46" height="113.77"/><polygon class="cls-4" points="711.12 363.55 763.68 363.55 763.68 380.98 745.99 380.98 745.99 430.33 728.47 430.33 728.47 380.98 711.12 380.98 711.12 363.55"/><rect class="cls-1" x="399.22" y="363.55" width="364.46" height="113.77"/><rect class="cls-5" x="595.07" y="418.4" width="52.42" height="11.77"/><rect class="cls-1" x="399.22" y="363.55" width="364.46" height="113.77"/><path class="cls-4" d="M468.57,457.85a8.59,8.59,0,0,0-8.58-8.58h-9.68v28h2V466.39h6.55l6.3,10.93h2.38l-6.35-11a8.61,8.61,0,0,0,7.35-8.45M460,464.36h-7.65V451.3H460a6.53,6.53,0,0,1,0,13.06"/><rect class="cls-1" x="399.22" y="363.55" width="364.46" height="113.77"/><polygon class="cls-4" points="472.95 477.32 490.92 477.32 490.92 475.25 474.98 475.25 474.98 464.01 489.82 464.01 489.82 461.94 474.98 461.94 474.98 451.33 490.92 451.33 490.92 449.27 472.95 449.27 472.95 477.32"/><rect class="cls-1" x="399.22" y="363.55" width="364.46" height="113.77"/><path class="cls-4" d="M516.42,471.72a12,12,0,1,1-.06-17l.46.45,1.49-1.38-.5-.49a14,14,0,1,0,.07,19.9l.46-.46-1.42-1.53Z"/><rect class="cls-1" x="399.22" y="363.55" width="364.46" height="113.77"/><path class="cls-4" d="M541.28,457.85a8.59,8.59,0,0,0-8.58-8.58H523v28h2V466.39h6.55l6.3,10.93h2.38l-6.35-11a8.61,8.61,0,0,0,7.35-8.45m-8.58,6.51h-7.65V451.3h7.65a6.53,6.53,0,0,1,0,13.06"/><rect class="cls-1" x="399.22" y="363.55" width="364.46" height="113.77"/><path class="cls-4" d="M565,466.14a9.17,9.17,0,0,1-18.33,0V449.27h-2.06v16.84a11.23,11.23,0,0,0,22.46,0V449.27H565v16.87Z"/><rect class="cls-1" x="399.22" y="363.55" width="364.46" height="113.77"/><rect class="cls-4" x="572.82" y="449.27" width="2.03" height="28.04"/><rect class="cls-1" x="399.22" y="363.55" width="364.46" height="113.77"/><polygon class="cls-4" points="580.47 451.3 590.65 451.3 590.65 477.32 592.68 477.32 592.68 451.3 602.89 451.3 602.89 449.27 580.47 449.27 580.47 451.3"/><rect class="cls-1" x="399.22" y="363.55" width="364.46" height="113.77"/><polygon class="cls-4" points="608.02 449.27 607.3 449.27 607.3 477.32 609.37 477.32 609.37 452.25 622.04 464.92 634.75 452.25 634.75 477.32 636.81 477.32 636.81 449.27 636.14 449.27 636.1 449.27 635.82 449.27 634.83 449.27 622.04 462.05 609.29 449.27 608.3 449.27 608.02 449.27"/><rect class="cls-1" x="399.22" y="363.55" width="364.46" height="113.77"/><polygon class="cls-4" points="642.08 477.32 660.05 477.32 660.05 475.25 644.11 475.25 644.11 464.01 658.95 464.01 658.95 461.94 644.11 461.94 644.11 451.33 660.05 451.33 660.05 449.27 642.08 449.27 642.08 477.32"/><polygon class="cls-4" points="686.43 473.99 666.82 449.27 665.79 449.27 665.58 449.27 665.36 449.27 664.64 449.27 664.64 477.32 666.71 477.32 666.71 452.59 686.38 477.32 687.34 477.32 687.61 477.32 687.78 477.32 688.49 477.32 688.49 449.27 686.43 449.27 686.43 473.99"/><polygon class="cls-4" points="691.94 449.27 691.94 451.3 702.12 451.3 702.12 477.32 704.15 477.32 704.15 451.3 714.36 451.3 714.36 449.27 691.94 449.27"/></g></g></svg>