<svg xmlns="http://www.w3.org/2000/svg" viewBox="0 0 1140 648.43"><defs><style>.cls-1{fill:none;}.cls-2{fill:#00acd4;}</style></defs><title>tv</title><g id="Layer_2" data-name="Layer 2"><g id="HEADER"><path class="cls-1" d="M653.14,45.2a14.43,14.43,0,1,0-14.43-14.43A14.44,14.44,0,0,0,653.14,45.2Z"/><path class="cls-1" d="M498.81,29.81a14.43,14.43,0,1,0-14.43,14.43A14.44,14.44,0,0,0,498.81,29.81Z"/><path class="cls-1" d="M185.15,205.62c0-7.48,5.79-13.56,12.92-13.56h751.2c7.12,0,12.92,6.08,12.92,13.56v420.8h58.66V163.74c0-16.79-13.13-30.45-29.28-30.45H155.76c-16.14,0-29.28,13.66-29.28,30.45V626.43h58.66Z"/><rect class="cls-1" x="206.31" y="214.27" width="734.72" height="411.95"/><path class="cls-2" d="M1042,626.43V163.74c0-28.93-22.62-52.46-50.43-52.46H597.22L642.4,58.58a29.85,29.85,0,1,0-15.74-14.14l-57.3,66.85h-5.48L509.55,45.77a29.82,29.82,0,1,0-17,12.7l43.8,52.82H155.76c-27.81,0-50.43,23.53-50.43,52.46V626.43H0v22H1140v-22ZM653.14,16.35a14.43,14.43,0,1,1-14.43,14.43A14.44,14.44,0,0,1,653.14,16.35ZM470,29.81a14.43,14.43,0,1,1,14.43,14.43A14.44,14.44,0,0,1,470,29.81ZM126.49,163.74c0-16.79,13.13-30.45,29.28-30.45h835.8c16.14,0,29.28,13.66,29.28,30.45V626.43H962.18V205.62c0-7.48-5.79-13.56-12.92-13.56H198.07c-7.12,0-12.92,6.08-12.92,13.56v420.8H126.49Zm79.82,462.48v-412H941v412Z"/></g></g></svg>